<svg xmlns="http://www.w3.org/2000/svg" xmlns:xlink="http://www.w3.org/1999/xlink" width="400" zoomAndPan="magnify" viewBox="0 0 300 299.999988" height="400" preserveAspectRatio="xMidYMid meet" version="1.0"><defs><clipPath id="423ad79984"><path d="M 11.800781 7.109375 L 285.1875 7.109375 L 285.1875 280.496094 L 11.800781 280.496094 Z M 11.800781 7.109375 " clip-rule="nonzero"/></clipPath><clipPath id="b41c9bba8f"><path d="M 148.496094 7.109375 C 73 7.109375 11.800781 68.308594 11.800781 143.804688 C 11.800781 219.296875 73 280.496094 148.496094 280.496094 C 223.988281 280.496094 285.1875 219.296875 285.1875 143.804688 C 285.1875 68.308594 223.988281 7.109375 148.496094 7.109375 Z M 148.496094 7.109375 " clip-rule="nonzero"/></clipPath><clipPath id="402150332f"><path d="M 54.652344 57.488281 L 249.652344 57.488281 L 249.652344 168 L 54.652344 168 Z M 54.652344 57.488281 " clip-rule="nonzero"/></clipPath><clipPath id="e194b2fa3b"><path d="M 135 200 L 170 200 L 170 245.738281 L 135 245.738281 Z M 135 200 " clip-rule="nonzero"/></clipPath></defs><g clip-path="url(#423ad79984)"><g clip-path="url(#b41c9bba8f)"><path stroke-linecap="butt" transform="matrix(0.75, 0, 0, 0.75, 11.800996, 7.110649)" fill="none" stroke-linejoin="miter" d="M 182.260145 -0.00169816 C 81.598679 -0.00169816 -0.000286115 81.597267 -0.000286115 182.258733 C -0.000286115 282.914992 81.598679 364.513957 182.260145 364.513957 C 282.916404 364.513957 364.515369 282.914992 364.515369 182.258733 C 364.515369 81.597267 282.916404 -0.00169816 182.260145 -0.00169816 Z M 182.260145 -0.00169816 " stroke="#7cb748" stroke-width="8" stroke-opacity="1" stroke-miterlimit="4"/></g></g><g clip-path="url(#402150332f)"><path fill="#7cb748" d="M 88.1875 167.367188 C 89.871094 167.367188 91.234375 166.003906 91.234375 164.320312 C 91.234375 162.636719 89.871094 161.269531 88.1875 161.269531 L 85.140625 161.269531 C 71.691406 161.269531 60.75 150.328125 60.75 136.882812 C 60.75 123.433594 71.691406 112.492188 85.140625 112.492188 L 88.1875 112.492188 C 89.871094 112.492188 91.234375 111.125 91.234375 109.441406 L 91.234375 101.820312 C 91.234375 80.808594 108.332031 63.710938 129.34375 63.710938 C 139.746094 63.710938 149.460938 67.828125 156.707031 75.296875 C 157.621094 76.242188 159.042969 76.492188 160.230469 75.917969 C 164.398438 73.886719 168.878906 72.859375 173.550781 72.859375 C 190.363281 72.859375 204.039062 86.535156 204.039062 103.34375 C 204.039062 105.027344 205.402344 106.394531 207.085938 106.394531 L 216.234375 106.394531 C 231.363281 106.394531 243.671875 118.703125 243.671875 133.832031 C 243.671875 148.960938 231.363281 161.269531 216.234375 161.269531 C 214.550781 161.269531 213.183594 162.636719 213.183594 164.320312 C 213.183594 166.003906 214.550781 167.367188 216.234375 167.367188 C 234.726562 167.367188 249.769531 152.324219 249.769531 133.832031 C 249.769531 115.339844 234.726562 100.296875 216.234375 100.296875 L 210.011719 100.296875 C 208.457031 81.546875 192.695312 66.761719 173.550781 66.761719 C 168.679688 66.761719 163.980469 67.695312 159.542969 69.539062 C 151.328125 61.832031 140.6875 57.613281 129.34375 57.613281 C 104.96875 57.613281 85.140625 77.445312 85.140625 101.820312 L 85.140625 106.394531 C 68.328125 106.394531 54.652344 120.070312 54.652344 136.882812 C 54.652344 153.691406 68.328125 167.367188 85.140625 167.367188 Z M 88.1875 167.367188 " fill-opacity="1" fill-rule="nonzero"/></g><path fill="#7cb748" d="M 127.820312 124.6875 L 109.527344 124.6875 L 109.527344 142.980469 L 127.820312 142.980469 Z M 121.722656 136.882812 L 115.625 136.882812 C 113.941406 136.882812 112.578125 135.515625 112.578125 133.832031 C 112.578125 132.148438 113.941406 130.785156 115.625 130.785156 L 121.722656 130.785156 C 123.40625 130.785156 124.773438 132.148438 124.773438 133.832031 C 124.773438 135.515625 123.40625 136.882812 121.722656 136.882812 Z M 121.722656 136.882812 " fill-opacity="1" fill-rule="nonzero"/><path fill="#7cb748" d="M 194.890625 100.296875 L 133.917969 100.296875 L 133.917969 118.589844 L 194.890625 118.589844 Z M 143.0625 112.492188 C 143.0625 114.175781 141.699219 115.539062 140.015625 115.539062 C 138.332031 115.539062 136.96875 114.175781 136.96875 112.492188 L 136.96875 106.394531 C 136.96875 104.710938 138.332031 103.34375 140.015625 103.34375 C 141.699219 103.34375 143.0625 104.710938 143.0625 106.394531 Z M 152.210938 112.492188 C 152.210938 114.175781 150.84375 115.539062 149.160156 115.539062 C 147.476562 115.539062 146.113281 114.175781 146.113281 112.492188 L 146.113281 106.394531 C 146.113281 104.710938 147.476562 103.34375 149.160156 103.34375 C 150.84375 103.34375 152.210938 104.710938 152.210938 106.394531 Z M 161.355469 112.492188 C 161.355469 114.175781 159.992188 115.539062 158.308594 115.539062 C 156.625 115.539062 155.257812 114.175781 155.257812 112.492188 L 155.257812 106.394531 C 155.257812 104.710938 156.625 103.34375 158.308594 103.34375 C 159.992188 103.34375 161.355469 104.710938 161.355469 106.394531 Z M 188.792969 112.492188 L 167.453125 112.492188 C 165.769531 112.492188 164.40625 111.125 164.40625 109.441406 C 164.40625 107.757812 165.769531 106.394531 167.453125 106.394531 L 188.792969 106.394531 C 190.480469 106.394531 191.84375 107.757812 191.84375 109.441406 C 191.84375 111.125 190.480469 112.492188 188.792969 112.492188 Z M 188.792969 112.492188 " fill-opacity="1" fill-rule="nonzero"/><path fill="#7cb748" d="M 127.820312 100.296875 L 109.527344 100.296875 L 109.527344 118.589844 L 127.820312 118.589844 Z M 121.722656 112.492188 L 115.625 112.492188 C 113.941406 112.492188 112.578125 111.125 112.578125 109.441406 C 112.578125 107.757812 113.941406 106.394531 115.625 106.394531 L 121.722656 106.394531 C 123.40625 106.394531 124.773438 107.757812 124.773438 109.441406 C 124.773438 111.125 123.40625 112.492188 121.722656 112.492188 Z M 121.722656 112.492188 " fill-opacity="1" fill-rule="nonzero"/><path fill="#7cb748" d="M 133.917969 142.980469 L 194.890625 142.980469 L 194.890625 124.6875 L 133.917969 124.6875 Z M 167.453125 130.785156 L 188.792969 130.785156 C 190.480469 130.785156 191.84375 132.148438 191.84375 133.832031 C 191.84375 135.515625 190.480469 136.882812 188.792969 136.882812 L 167.453125 136.882812 C 165.769531 136.882812 164.40625 135.515625 164.40625 133.832031 C 164.40625 132.148438 165.769531 130.785156 167.453125 130.785156 Z M 155.257812 130.785156 C 155.257812 129.101562 156.625 127.734375 158.308594 127.734375 C 159.992188 127.734375 161.355469 129.101562 161.355469 130.785156 L 161.355469 136.882812 C 161.355469 138.566406 159.992188 139.929688 158.308594 139.929688 C 156.625 139.929688 155.257812 138.566406 155.257812 136.882812 Z M 146.113281 130.785156 C 146.113281 129.101562 147.476562 127.734375 149.160156 127.734375 C 150.84375 127.734375 152.210938 129.101562 152.210938 130.785156 L 152.210938 136.882812 C 152.210938 138.566406 150.84375 139.929688 149.160156 139.929688 C 147.476562 139.929688 146.113281 138.566406 146.113281 136.882812 Z M 136.96875 130.785156 C 136.96875 129.101562 138.332031 127.734375 140.015625 127.734375 C 141.699219 127.734375 143.0625 129.101562 143.0625 130.785156 L 143.0625 136.882812 C 143.0625 138.566406 141.699219 139.929688 140.015625 139.929688 C 138.332031 139.929688 136.96875 138.566406 136.96875 136.882812 Z M 136.96875 130.785156 " fill-opacity="1" fill-rule="nonzero"/><path fill="#7cb748" d="M 109.527344 167.367188 L 127.820312 167.367188 L 127.820312 149.074219 L 109.527344 149.074219 Z M 115.625 155.171875 L 121.722656 155.171875 C 123.40625 155.171875 124.773438 156.539062 124.773438 158.222656 C 124.773438 159.90625 123.40625 161.269531 121.722656 161.269531 L 115.625 161.269531 C 113.941406 161.269531 112.578125 159.90625 112.578125 158.222656 C 112.578125 156.539062 113.941406 155.171875 115.625 155.171875 Z M 115.625 155.171875 " fill-opacity="1" fill-rule="nonzero"/><path fill="#7cb748" d="M 191.84375 203.953125 C 191.300781 203.953125 190.773438 204.03125 190.269531 204.164062 L 179.648438 193.542969 L 179.648438 170.417969 L 173.550781 170.417969 L 173.550781 194.808594 C 173.550781 195.617188 173.871094 196.390625 174.445312 196.960938 L 185.960938 208.476562 C 185.824219 208.980469 185.746094 209.503906 185.746094 210.050781 C 185.746094 213.414062 188.480469 216.148438 191.84375 216.148438 C 195.207031 216.148438 197.941406 213.414062 197.941406 210.050781 C 197.941406 206.6875 195.207031 203.953125 191.84375 203.953125 Z M 191.84375 203.953125 " fill-opacity="1" fill-rule="nonzero"/><path fill="#7cb748" d="M 240.621094 185.660156 C 238.371094 185.660156 236.40625 186.890625 235.351562 188.710938 L 194.890625 188.710938 L 194.890625 170.417969 L 188.792969 170.417969 L 188.792969 191.757812 C 188.792969 193.441406 190.160156 194.808594 191.84375 194.808594 L 235.351562 194.808594 C 236.40625 196.625 238.371094 197.855469 240.621094 197.855469 C 243.984375 197.855469 246.71875 195.121094 246.71875 191.757812 C 246.71875 188.394531 243.984375 185.660156 240.621094 185.660156 Z M 240.621094 185.660156 " fill-opacity="1" fill-rule="nonzero"/><path fill="#7cb748" d="M 194.890625 149.074219 L 133.917969 149.074219 L 133.917969 167.367188 L 194.890625 167.367188 Z M 143.0625 161.269531 C 143.0625 162.953125 141.699219 164.320312 140.015625 164.320312 C 138.332031 164.320312 136.96875 162.953125 136.96875 161.269531 L 136.96875 155.171875 C 136.96875 153.488281 138.332031 152.125 140.015625 152.125 C 141.699219 152.125 143.0625 153.488281 143.0625 155.171875 Z M 152.210938 161.269531 C 152.210938 162.953125 150.84375 164.320312 149.160156 164.320312 C 147.476562 164.320312 146.113281 162.953125 146.113281 161.269531 L 146.113281 155.171875 C 146.113281 153.488281 147.476562 152.125 149.160156 152.125 C 150.84375 152.125 152.210938 153.488281 152.210938 155.171875 Z M 161.355469 161.269531 C 161.355469 162.953125 159.992188 164.320312 158.308594 164.320312 C 156.625 164.320312 155.257812 162.953125 155.257812 161.269531 L 155.257812 155.171875 C 155.257812 153.488281 156.625 152.125 158.308594 152.125 C 159.992188 152.125 161.355469 153.488281 161.355469 155.171875 Z M 188.792969 161.269531 L 167.453125 161.269531 C 165.769531 161.269531 164.40625 159.90625 164.40625 158.222656 C 164.40625 156.539062 165.769531 155.171875 167.453125 155.171875 L 188.792969 155.171875 C 190.480469 155.171875 191.84375 156.539062 191.84375 158.222656 C 191.84375 159.90625 190.480469 161.269531 188.792969 161.269531 Z M 188.792969 161.269531 " fill-opacity="1" fill-rule="nonzero"/><path fill="#7cb748" d="M 164.40625 176.515625 L 140.015625 176.515625 C 138.332031 176.515625 136.96875 177.878906 136.96875 179.5625 C 136.96875 181.246094 138.332031 182.613281 140.015625 182.613281 L 164.40625 182.613281 C 166.089844 182.613281 167.453125 181.246094 167.453125 179.5625 C 167.453125 177.878906 166.089844 176.515625 164.40625 176.515625 Z M 164.40625 176.515625 " fill-opacity="1" fill-rule="nonzero"/><path fill="#7cb748" d="M 164.40625 185.660156 L 140.015625 185.660156 C 138.332031 185.660156 136.96875 187.027344 136.96875 188.710938 C 136.96875 190.394531 138.332031 191.757812 140.015625 191.757812 L 164.40625 191.757812 C 166.089844 191.757812 167.453125 190.394531 167.453125 188.710938 C 167.453125 187.027344 166.089844 185.660156 164.40625 185.660156 Z M 164.40625 185.660156 " fill-opacity="1" fill-rule="nonzero"/><g clip-path="url(#e194b2fa3b)"><path fill="#7cb748" d="M 161.355469 225.277344 L 161.355469 200.902344 L 143.0625 200.902344 L 143.0625 225.277344 C 143.0625 226.960938 141.699219 228.328125 140.015625 228.328125 L 135.175781 228.328125 L 152.195312 245.371094 L 169.238281 228.328125 L 164.40625 228.328125 C 162.722656 228.328125 161.355469 226.960938 161.355469 225.277344 Z M 161.355469 225.277344 " fill-opacity="1" fill-rule="nonzero"/></g><path fill="#7cb748" d="M 124.773438 210.050781 L 102.605469 210.050781 C 101.550781 208.230469 99.585938 207 97.332031 207 C 93.972656 207 91.234375 209.738281 91.234375 213.097656 C 91.234375 216.460938 93.972656 219.195312 97.332031 219.195312 C 99.585938 219.195312 101.550781 217.96875 102.605469 216.148438 L 127.820312 216.148438 C 129.503906 216.148438 130.871094 214.78125 130.871094 213.097656 L 130.871094 170.417969 L 124.773438 170.417969 Z M 124.773438 210.050781 " fill-opacity="1" fill-rule="nonzero"/><path fill="#7cb748" d="M 112.578125 188.710938 C 114.261719 188.710938 115.625 187.34375 115.625 185.660156 L 115.625 170.417969 L 109.527344 170.417969 L 109.527344 182.613281 L 75.167969 182.613281 C 74.113281 180.792969 72.144531 179.5625 69.894531 179.5625 C 66.535156 179.5625 63.796875 182.296875 63.796875 185.660156 C 63.796875 189.023438 66.535156 191.757812 69.894531 191.757812 C 72.144531 191.757812 74.113281 190.527344 75.167969 188.710938 Z M 112.578125 188.710938 " fill-opacity="1" fill-rule="nonzero"/></svg>