<svg id="Layer_1" data-name="Layer 1" xmlns="http://www.w3.org/2000/svg" viewBox="0 0 280 300"><defs><style>.cls-1{fill:#ef4538;}</style></defs><title>Quora-icon</title><path class="cls-1" d="M150.77,165.39a20.44,20.44,0,1,0-10.77,3.1,20.22,20.22,0,0,0,4.83-.59c1.94,3.54,4.91,6,11.2,4.85v-3.52s-4-1-5.26-3.84Zm-.15-14.92a14.65,14.65,0,0,1-2.9,8.94,12.94,12.94,0,0,0-10.26-4.12v4.08s3,.12,5.12,3.7a8.53,8.53,0,0,1-2.42.35c-5.79,0-10.47-5.8-10.47-13v-5.34c0-7.16,4.68-13,10.47-13s10.46,5.8,10.46,13v5.35Z"/></svg>